<?xml version="1.0" encoding="UTF-8"?>
<svg id="Layer_2" data-name="Layer 2" xmlns="http://www.w3.org/2000/svg" viewBox="0 0 1274.17 392.4">
  <defs>
    <style>
      .cls-1 {
        fill: #fff;
      }
    </style>
  </defs>
  <g id="Layer_1-2" data-name="Layer 1">
    <path class="cls-1" d="M303.05,314.22l-38.13-18.72c-18.53-9.1-40.82-5.23-55.2,9.58l-29.59,30.48c-13.51,13.92-36.94,2.41-34.19-16.79l6.02-42.05c2.93-20.44-7.64-40.44-26.17-49.54l-38.13-18.72c-17.41-8.55-13.71-34.38,5.4-37.7l41.85-7.27c20.34-3.53,36.1-19.76,39.03-40.2l6.02-42.05c2.75-19.2,28.46-23.66,37.52-6.51l19.84,37.56c9.65,18.26,29.95,28.23,50.29,24.69l41.85-7.27c19.11-3.32,31.3,19.76,17.79,33.67l-29.59,30.48c-14.38,14.81-17.59,37.21-7.94,55.46l19.84,37.56c9.06,17.15-9.12,35.87-26.53,27.33Z"/>
    <path class="cls-1" d="M97.68,63.45h0c-15.73,3.87-26.2,18.74-24.54,34.86h0c1.05,10.24-12.46,14.85-17.89,6.11h0c-8.54-13.76-25.92-19.13-40.74-12.57h0c-9.41,4.16-17.98-7.26-11.34-15.13h0c10.45-12.38,10.18-30.56-.63-42.63h0c-6.87-7.66,1.35-19.34,10.88-15.46h0c15,6.11,32.21.24,40.35-13.77h0c5.17-8.9,18.81-4.69,18.06,5.58h0c-1.18,16.16,9.73,30.71,25.57,34.12h0c10.06,2.16,10.27,16.44.28,18.9Z"/>
    <g>
      <path class="cls-1" d="M440.01,80.08l2.87-19.81h141.82l-2.61,19.81-44.06,9.91v264.87l47.19,8.86-2.61,20.86h-140.78l2.09-19.29,43.54-12.25V91.02l-47.45-10.95Z"/>
      <path class="cls-1" d="M685.07,390.05c-15.64,0-29.94-4.22-42.88-12.64-12.95-8.43-23.2-20.9-30.76-37.41-7.56-16.51-11.34-36.32-11.34-59.44s5.65-46.23,16.95-66.22c11.3-19.98,25.76-35.72,43.41-47.19,17.64-11.47,35.5-17.21,53.57-17.21,8.51,0,17.03,1.13,25.55,3.39,8.51,2.26,14.95,4.95,19.29,8.08h1.83l-3.13-33.37v-40.93l-39.63-14.34,3.65-19.55,72.47-6.26,5.48,6.26v275.3c0,8.69,1.08,15.17,3.26,19.42,2.17,4.26,5.04,7.13,8.6,8.6,3.56,1.48,9.08,3.09,16.55,4.82l11.73,2.61-2.87,21.64c-7.82,2.09-14.21,3.43-19.16,4.04-4.95.61-11.34.91-19.16.91-12.51,0-22.12-3.56-28.81-10.69-6.69-7.12-10.04-16.33-10.04-27.63v-1.83h-2.35c-8.69,11.82-18.77,21.38-30.24,28.68s-25.46,10.95-41.97,10.95ZM701.5,175.49c-19.29,0-33.37,8.04-42.23,24.11-8.86,16.08-13.3,37.59-13.3,64.52,0,19.99,2.48,36.98,7.43,50.97,4.95,13.99,11.77,24.51,20.46,31.54,8.69,7.04,18.6,10.56,29.72,10.56,10.08,0,20.29-2.52,30.63-7.56,10.34-5.04,18.03-10.51,23.07-16.42v-122.27c-6.61-10.77-15.25-19.38-25.94-25.81-10.69-6.43-20.64-9.65-29.85-9.65Z"/>
      <path class="cls-1" d="M952.12,392.4c-16.86,0-32.81-4.56-47.84-13.69-15.04-9.12-27.16-22.72-36.37-40.8-9.21-18.07-13.82-39.71-13.82-64.92s5.25-46.58,15.77-65.17c10.51-18.6,24.03-32.85,40.54-42.76,16.51-9.91,33.46-14.86,50.84-14.86,12.86,0,24.59,3.17,35.2,9.52,10.6,6.35,18.99,15.73,25.16,28.16,6.17,12.43,9.25,27.5,9.25,45.23,0,4-.44,9.52-1.3,16.55-.87,7.04-1.82,12.82-2.87,17.34l-126.18,1.56c.69,14.6,3.82,28.77,9.38,42.5,5.56,13.73,13.69,24.99,24.38,33.76,10.69,8.78,23.68,13.17,38.97,13.17,8.34,0,14.95-.22,19.81-.65,4.86-.43,10.51-1.69,16.95-3.78,6.43-2.09,13.9-5.39,22.42-9.91l5.47,13.82c-10.43,10.95-23.07,19.51-37.93,25.68-14.86,6.17-30.81,9.25-47.84,9.25ZM948.47,175.75c-7.3,0-14.43,2.65-21.38,7.95-6.95,5.3-12.82,13.39-17.6,24.25-4.78,10.86-7.61,24.29-8.47,40.28l81.86-6c.52-1.91.91-4.73,1.17-8.47.26-3.74.39-6.91.39-9.52,0-32.33-11.99-48.49-35.98-48.49Z"/>
      <path class="cls-1" d="M1120.61,390.83c-9.21,0-17.73-2-25.55-6s-14.04-9.78-18.64-17.34c-4.61-7.56-6.91-16.46-6.91-26.72,0-13.38,4.26-25.98,12.77-37.8,8.51-11.82,21.77-21.77,39.76-29.85,17.99-8.08,40.54-13.08,67.65-14.99v-14.34c0-20.16-3.56-36.8-10.69-49.92-7.13-13.12-18.95-19.68-35.46-19.68-8.17,0-14.08,1.65-17.73,4.95-3.65,3.3-6.04,8.26-7.17,14.86-1.13,6.61-2.48,18.68-4.04,36.24-10.26,0-18.86-1.65-25.81-4.95-6.95-3.3-10.43-10.6-10.43-21.9,0-9.03,4.78-17.68,14.34-25.94,9.56-8.25,21.38-14.9,35.46-19.94,14.08-5.04,27.2-7.56,39.37-7.56,22.94,0,39.41,6.39,49.4,19.16,9.99,12.77,14.99,33.07,14.99,60.87v94.63c0,8.34.78,14.73,2.35,19.16,1.56,4.43,4.39,7.82,8.47,10.17,4.08,2.35,10.21,4.22,18.38,5.61l13.04,2.35-3.39,22.42c-2.61.35-6.61,1.04-11.99,2.09-8.34,1.91-16.16,2.87-23.46,2.87-9.38,0-17.12-1.74-23.2-5.21-6.09-3.47-10.47-7.86-13.17-13.17-2.7-5.3-4.04-10.82-4.04-16.55v-3.91h-2.87c-5.04,9.74-13.52,18.9-25.42,27.5-11.91,8.6-27.24,12.9-46.01,12.9ZM1189.7,272.99c-27.11,5.39-46.32,12.64-57.62,21.77-11.3,9.12-16.95,20.38-16.95,33.76,0,4.52,1.13,9.12,3.39,13.82,2.26,4.69,5.61,8.6,10.04,11.73,4.43,3.13,9.69,4.69,15.77,4.69,8.34,0,16.69-2.43,25.03-7.3,8.34-4.86,15.12-10.17,20.33-15.9v-62.57Z"/>
    </g>
  </g>
</svg>